<svg width="30" height="31" viewBox="0 0 30 31" fill="none" xmlns="http://www.w3.org/2000/svg">
<path d="M23.75 14.1596H8.925L13.4625 8.70965C13.6747 8.45438 13.7768 8.12527 13.7463 7.79474C13.7158 7.46421 13.5553 7.15932 13.3 6.94715C13.0447 6.73497 12.7156 6.6329 12.3851 6.66337C12.0546 6.69385 11.7497 6.85438 11.5375 7.10965L5.2875 14.6096C5.24545 14.6693 5.20785 14.732 5.175 14.7971C5.175 14.8596 5.175 14.8971 5.0875 14.9596C5.03084 15.103 5.00118 15.2555 5 15.4096C5.00118 15.5638 5.03084 15.7163 5.0875 15.8596C5.0875 15.9221 5.0875 15.9596 5.175 16.0221C5.20785 16.0873 5.24545 16.15 5.2875 16.2096L11.5375 23.7096C11.655 23.8507 11.8022 23.9642 11.9686 24.042C12.1349 24.1198 12.3164 24.1599 12.5 24.1596C12.7921 24.1602 13.0751 24.0585 13.3 23.8721C13.4266 23.7672 13.5312 23.6383 13.6079 23.4929C13.6846 23.3475 13.7318 23.1883 13.7469 23.0246C13.762 22.8609 13.7447 22.6958 13.6959 22.5388C13.6471 22.3818 13.5678 22.236 13.4625 22.1096L8.925 16.6596H23.75C24.0815 16.6596 24.3995 16.528 24.6339 16.2935C24.8683 16.0591 25 15.7412 25 15.4096C25 15.0781 24.8683 14.7602 24.6339 14.5258C24.3995 14.2913 24.0815 14.1596 23.75 14.1596Z" fill="#F53838"/>
</svg>
