<svg width="16" height="17" viewBox="0 0 16 17" fill="none" xmlns="http://www.w3.org/2000/svg">
<path d="M14.1891 5.57476L10.2219 4.9982L8.44844 1.40289C8.4 1.30445 8.32031 1.22476 8.22187 1.17632C7.975 1.05445 7.675 1.15601 7.55156 1.40289L5.77812 4.9982L1.81094 5.57476C1.70156 5.59039 1.60156 5.64195 1.525 5.72007C1.43244 5.81521 1.38143 5.9432 1.38319 6.07592C1.38495 6.20864 1.43933 6.33524 1.53437 6.42789L4.40469 9.22632L3.72656 13.1779C3.71066 13.2698 3.72083 13.3643 3.75592 13.4508C3.79102 13.5372 3.84963 13.6121 3.92511 13.6669C4.00059 13.7217 4.08992 13.7543 4.18297 13.7609C4.27602 13.7676 4.36907 13.748 4.45156 13.7044L8 11.8388L11.5484 13.7044C11.6453 13.756 11.7578 13.7732 11.8656 13.7544C12.1375 13.7076 12.3203 13.4498 12.2734 13.1779L11.5953 9.22632L14.4656 6.42789C14.5437 6.35132 14.5953 6.25132 14.6109 6.14195C14.6531 5.86851 14.4625 5.61539 14.1891 5.57476Z" fill="#FEA250"/>
</svg>
